<svg width="38" height="16" viewBox="0 0 38 16" fill="none" xmlns="http://www.w3.org/2000/svg">
<path d="M25.2955 2.36364V14H23.8864V3.84091H23.8182L20.9773 5.72727V4.29545L23.8864 2.36364H25.2955ZM32.4375 14.1591C31.5814 14.1591 30.8523 13.9261 30.25 13.4602C29.6477 12.9905 29.1875 12.3106 28.8693 11.4205C28.5511 10.5265 28.392 9.44697 28.392 8.18182C28.392 6.92424 28.5511 5.85038 28.8693 4.96023C29.1913 4.06629 29.6534 3.38447 30.2557 2.91477C30.8617 2.44129 31.589 2.20455 32.4375 2.20455C33.286 2.20455 34.0114 2.44129 34.6136 2.91477C35.2197 3.38447 35.6818 4.06629 36 4.96023C36.322 5.85038 36.483 6.92424 36.483 8.18182C36.483 9.44697 36.3239 10.5265 36.0057 11.4205C35.6875 12.3106 35.2273 12.9905 34.625 13.4602C34.0227 13.9261 33.2936 14.1591 32.4375 14.1591ZM32.4375 12.9091C33.286 12.9091 33.9451 12.5 34.4148 11.6818C34.8845 10.8636 35.1193 9.69697 35.1193 8.18182C35.1193 7.17424 35.0114 6.31629 34.7955 5.60795C34.5833 4.89962 34.2765 4.35985 33.875 3.98864C33.4773 3.61742 32.9981 3.43182 32.4375 3.43182C31.5966 3.43182 30.9394 3.84659 30.4659 4.67614C29.9924 5.50189 29.7557 6.67045 29.7557 8.18182C29.7557 9.18939 29.8617 10.0455 30.0739 10.75C30.286 11.4545 30.5909 11.9905 30.9886 12.358C31.3902 12.7254 31.8731 12.9091 32.4375 12.9091Z" fill="black"/>
<g clip-path="url(#clip0_541_39)">
<path d="M13.9999 3.99999H12.6666V9.99999H3.99992V11.3333C3.99992 11.7 4.29992 12 4.66658 12H11.9999L14.6666 14.6667V4.66666C14.6666 4.29999 14.3666 3.99999 13.9999 3.99999ZM11.3333 7.99999V1.99999C11.3333 1.63333 11.0333 1.33333 10.6666 1.33333H1.99992C1.63325 1.33333 1.33325 1.63333 1.33325 1.99999V11.3333L3.99992 8.66666H10.6666C11.0333 8.66666 11.3333 8.36666 11.3333 7.99999Z" fill="black"/>
</g>
<defs>
<clipPath id="clip0_541_39">
<rect width="16" height="16" fill="white"/>
</clipPath>
</defs>
</svg>
