<svg width="60" height="53" viewBox="0 0 60 53" fill="none" xmlns="http://www.w3.org/2000/svg">
<rect width="60" height="53" rx="10" fill="#5374FF"/>
<path d="M43.0606 37.4307L37.9606 32.3457C39.6061 30.2494 40.4989 27.6607 40.4956 24.9957C40.4956 22.6223 39.7918 20.3022 38.4732 18.3288C37.1547 16.3554 35.2805 14.8174 33.0878 13.9091C30.8951 13.0009 28.4823 12.7632 26.1545 13.2262C23.8268 13.6893 21.6886 14.8322 20.0103 16.5104C18.3321 18.1886 17.1892 20.3268 16.7262 22.6546C16.2632 24.9824 16.5008 27.3952 17.4091 29.5879C18.3173 31.7806 19.8554 33.6547 21.8288 34.9733C23.8022 36.2919 26.1222 36.9957 28.4956 36.9957C31.1606 36.999 33.7493 36.1061 35.8456 34.4607L40.9306 39.5607C41.0701 39.7013 41.236 39.8129 41.4187 39.889C41.6015 39.9652 41.7976 40.0044 41.9956 40.0044C42.1936 40.0044 42.3897 39.9652 42.5725 39.889C42.7553 39.8129 42.9212 39.7013 43.0606 39.5607C43.2012 39.4212 43.3128 39.2553 43.389 39.0725C43.4651 38.8897 43.5043 38.6937 43.5043 38.4957C43.5043 38.2977 43.4651 38.1016 43.389 37.9188C43.3128 37.736 43.2012 37.5701 43.0606 37.4307ZM19.4956 24.9957C19.4956 23.2156 20.0235 21.4756 21.0124 19.9955C22.0013 18.5155 23.4069 17.3619 25.0515 16.6808C26.696 15.9996 28.5056 15.8213 30.2514 16.1686C31.9973 16.5159 33.6009 17.373 34.8596 18.6317C36.1182 19.8904 36.9754 21.494 37.3227 23.2399C37.6699 24.9857 37.4917 26.7953 36.8105 28.4398C36.1293 30.0844 34.9758 31.49 33.4957 32.4789C32.0157 33.4678 30.2756 33.9957 28.4956 33.9957C26.1087 33.9957 23.8195 33.0475 22.1316 31.3596C20.4438 29.6718 19.4956 27.3826 19.4956 24.9957Z" fill="white"/>
</svg>
